<svg xmlns="http://www.w3.org/2000/svg" xmlns:xlink="http://www.w3.org/1999/xlink" viewBox="0 0 718.8 699.9">
  <defs>
    <style>
      .a {
        fill: none;
      }

      .b, .g {
        fill: #1e284c;
      }

      .c {
        fill: #3955a2;
      }

      .d {
        fill: #e3203f;
      }

      .e {
        fill: #fff;
      }

      .f {
        fill: #d2d7db;
      }

      .g {
        stroke: #1e284c;
        stroke-miterlimit: 10;
      }

      .h {
        clip-path: url(#a);
      }

      .i {
        fill: #d8d8d7;
      }

      .j {
        fill: #c71532;
      }
    </style>
    <clipPath id="a" transform="translate(-142.9 -197.3)">
      <path class="a" d="M850.6,556.4s-358.1-112.4-697.4,0V672.3H850.6Z"/>
    </clipPath>
  </defs>
  <g>
    <g>
      <path class="b" d="M278.1,473.8a49,49,0,0,0,.4-5.4,478.6,478.6,0,0,1,5.6-60.9,61.3,61.3,0,0,1,2.7-12,20.8,20.8,0,0,1,6.6-9.6c30.1-25.4,49.3-57.7,59.6-96.1,4.9-18.5,6.3-37.4,6.5-56.5,0-6.8,1.2-9.2,7.7-10.8,11.5-2.7,23.1-5.4,34.8-7.4a558.5,558.5,0,0,1,102.5-7.7,596.2,596.2,0,0,1,59.8,3.8,467.3,467.3,0,0,1,58.5,10l6.1,2a8.2,8.2,0,0,1,5.6,8.1c.5,11.7.9,23.4,2.2,34.9a182.8,182.8,0,0,0,16.9,58.2,177.4,177.4,0,0,0,46.8,61.5c5.4,4.5,7.7,10.5,9,17.3a541.6,541.6,0,0,1,5.5,114.5,502.8,502.8,0,0,1-28.8,144A433.1,433.1,0,0,1,526,871.2c-8.3,5.5-14.8,9.1-23.3,14.4a10.8,10.8,0,0,1-12.6-.4,363.2,363.2,0,0,1-40.6-27.7,428.7,428.7,0,0,1-96.9-105.1c-46.2-71.7-68.7-151.2-73.6-236.5-.3-5.8-.7-11.5-.9-17.3Z" transform="translate(-142.9 -197.3)"/>
      <path class="c" d="M288.1,473.8c1.6-16.6,1.7-33.1,3.7-49.7.9-7.5,1.7-15.2,3.6-22.6s6.3-9.3,11-13.7a187.8,187.8,0,0,0,45.5-64.6c12.2-28.5,17.1-58.1,17.6-88.9V232c.1-3.6,0-.6,0-.6s.8-1.2,0-.5a12.7,12.7,0,0,0-.7,1.2c-.8.9-1.8.7-.2.4l5.8-1.4c7.6-1.8,15.2-3.5,22.8-5,15.9-3.1,32-5.1,48.1-6.6a592.6,592.6,0,0,1,98.8-.3c16,1.3,32,3.1,47.9,5.9,7.8,1.3,15.7,2.9,23.5,4.7,2.3.5,4.5,1.1,6.8,1.8l2.6.8c.6.2,1.9.3.8.2s-.3-2.5-1.2-.3.2,4.3.3,5.8l.6,12.7c.5,8.4,1.3,16.8,2.6,25.2a191.3,191.3,0,0,0,12.7,44c11.2,26.5,27.4,50.5,48.8,69.7,4.7,4.2,8.1,7,9.6,13.3s2.4,15,3.3,22.4c1.8,16.4,2.9,33,3.3,49.5a519.7,519.7,0,0,1-6.5,96.5c-9.5,57.7-28.8,113.9-59.2,164A423.6,423.6,0,0,1,534.5,852.7c-11.3,8.5-23.3,15.7-35.2,23.3-2.2,1.4-1.9,1.7-4.1.6-3.8-2-7.3-4.4-10.9-6.7-6.4-4.1-12.7-8.4-18.9-12.8a424.5,424.5,0,0,1-65.2-59c-38.8-43.1-68-94.5-86.4-149.4a500.6,500.6,0,0,1-25.7-156.8V473.8c0-12.9-20-12.9-20,0,0,48.6,4.2,97,16,144.4,14.7,59.2,40.8,116,77.8,164.7a437.3,437.3,0,0,0,63,67.4,478.3,478.3,0,0,0,38.6,29.8c6.6,4.5,13.3,8.7,20,12.8s15.4,6,23.6,1.7c25.7-13.6,49.3-32.6,70.6-52.1a446,446,0,0,0,56.7-63c35.4-47.5,60.2-102.1,75-159.4,16.9-66.1,20.7-135.8,11.9-203.4-1-7.9-1.5-16.3-4.4-23.8s-7-11.8-12.6-16.8A170.3,170.3,0,0,1,676,343.9a179.8,179.8,0,0,1-30.1-86.3c-.7-8.8-.8-17.5-1.4-26.3s-4.9-14.8-12.9-17.7c-11.8-4.4-24.8-6.2-37.2-8.3a607.8,607.8,0,0,0-103.5-8c-34.3.3-69,3.4-102.6,10.2-8.1,1.7-16.4,3.2-24.4,5.5-6.2,1.8-11.6,5.6-13.5,12.2s-1,14.5-1.3,21.4a202.5,202.5,0,0,1-2.4,24.7,184.4,184.4,0,0,1-31.9,77.2A174.6,174.6,0,0,1,287,378.3c-12.8,11.1-13.2,29.3-15.1,44.9s-2.2,33.7-3.8,50.6c-.5,5.3,5,10,10,10S287.6,479.2,288.1,473.8Z" transform="translate(-142.9 -197.3)"/>
    </g>
    <path class="d" d="M386.3,250.9c2.4-2.2,3.9-3,47.2-15.7,50.7-14.8,54.5-15.4,59.3-15.7,29.3-2.1,52,6.7,68.9,13.3,23.5,9.1,43.4,16.8,59.3,37.5,5.8,7.4,25.4,32.8,19.4,59.3-3.5,15.2-13.2,21.3-9.7,30.3s17.1,7.4,33.9,18.1,25,27,27.8,32.7c8.2,16.6,4.3,25.3,3.7,67.8-.7,47.5,3.9,51.5,0,81-2,15.1-5.4,29.7-12.1,50.9-11.1,34.7-26.7,83.4-63,140.4-32.4,50.9-81.5,128.1-127,119.8-11.9-2.2-17.6-9.1-43.6-37.5-79.4-87-73-74.2-87.1-93.2-68.1-91.9-71.4-193.8-73.9-271.1-1-31,1.1-55,15.8-76.3,20-28.9,25.2-31.8,42.3-59.3C370.1,297,362,273.3,386.3,250.9Z" transform="translate(-142.9 -197.3)"/>
    <path class="b" d="M318.5,497.4a506.6,506.6,0,0,1,4.2-63.9c.3-3.8.9-7.5,1.2-11.3a11.4,11.4,0,0,1,5.8-8.8,339.5,339.5,0,0,1,68.6-31.9l5.9-2c1.3-.5,3.3-.7,2.9-2.5a4.9,4.9,0,0,0-2.2-3.1,61.9,61.9,0,0,1-19.4-19.4c-20-32.2-6.1-75.2,28.6-88.9a53.6,53.6,0,0,1,27.7-3.4,25.3,25.3,0,0,0,18.9-5.1c18.6-14.2,39.1-16.3,60.3-7.7a60.2,60.2,0,0,1,13.9,8.1,23.6,23.6,0,0,0,17.6,4.7c20.7-2.5,38.2,4.5,51.9,20.5,22.5,26.3,17.8,67.1-9.8,87.8l-4.3,3.3c-1.2.7-3,1.2-2.7,3.2s2.2,2.2,3.6,2.5c9,3.4,18.2,6.5,27,10.3a335.2,335.2,0,0,1,45.7,22.7,14.4,14.4,0,0,1,7.2,10.8,573.7,573.7,0,0,1,5.3,70.5,423.3,423.3,0,0,1-22,133c-9,27.6-19.4,54.6-34.7,79.2-11.7,19.1-23.4,38.2-37.7,55.3a461.1,461.1,0,0,1-76.3,71.4c-2.1,1.6-8.2,6.7-20.3-2.9-27.7-21.2-53.5-44.8-75.4-72.3-9.9-12.4-18.4-26.1-27.2-39.4-17.6-26.3-30.2-55.1-40.3-85.2a446.6,446.6,0,0,1-19.1-75.5A413.8,413.8,0,0,1,318.5,497.4Z" transform="translate(-142.9 -197.3)"/>
    <path class="b" d="M278.6,472.8a49,49,0,0,0,.4-5.4,497.4,497.4,0,0,1,5.5-60.9,80.3,80.3,0,0,1,2.7-12,21,21,0,0,1,6.7-9.6c30-25.4,49.3-57.7,59.6-96.1,4.8-18.5,6.3-37.4,6.4-56.5,0-6.8,1.3-9.2,7.8-10.8,11.5-2.7,23-5.4,34.7-7.4A559.5,559.5,0,0,1,505,206.4a596.2,596.2,0,0,1,59.8,3.8,467.3,467.3,0,0,1,58.5,10l6.1,2a8.3,8.3,0,0,1,5.6,8.1c.5,11.7.9,23.4,2.1,34.9A185.4,185.4,0,0,0,654,323.4a179.8,179.8,0,0,0,46.8,61.5c5.4,4.5,7.8,10.5,9,17.3a535.1,535.1,0,0,1,5.6,114.5,502.8,502.8,0,0,1-28.8,144A433.3,433.3,0,0,1,526.4,870.2c-8.2,5.5-14.7,9.1-23.2,14.4a10.8,10.8,0,0,1-12.6-.4,373.9,373.9,0,0,1-40.7-27.7,430.2,430.2,0,0,1-96.8-105.1c-46.3-71.7-68.7-151.2-73.6-236.5-.4-5.8-.7-11.5-.9-17.3ZM437,249.9a60.3,60.3,0,0,0-25.6,3.8c-38.1,14.2-59.4,57.1-40.5,98.8,2.4,5.2,5.6,10.1,8.5,15.1s1.6,5.1-1.8,6.7l-9,4a233.6,233.6,0,0,0-49.9,26.4A16.5,16.5,0,0,0,311,417a510.7,510.7,0,0,0-6.1,56.5,456,456,0,0,0,9,117.1A408.1,408.1,0,0,0,378.3,739,432.1,432.1,0,0,0,485,846.4c3.6,2.5,12.5,10.1,24.7.2a435.4,435.4,0,0,0,100.8-99.2c52.5-72,78.6-153.2,79.9-243.1a498.4,498.4,0,0,0-6.1-85.5c-.7-4.9-1.8-9.4-6-12.5A214,214,0,0,0,644.1,386c-8.8-4.1-17.8-7.7-26.8-11.7-3.4-1.6-3.8-3.2-2-6.7s4.4-6.6,6.2-10c10.9-21.1,12.9-42.7,3.6-64.8-11.6-27.2-40.9-45.7-71-43a21.5,21.5,0,0,1-15.4-4.4,61.4,61.4,0,0,0-32.1-12.6c-18.1-1.9-35.1,1.1-50.2,12.5a20.8,20.8,0,0,1-12.6,4.5Z" transform="translate(-142.9 -197.3)"/>
    <g>
      <path class="d" d="M550.9,757.7a339.6,339.6,0,0,1-45.1,43.8,13.3,13.3,0,0,1-17.5,0c-25.2-20.8-28.6-20.4-47.7-46.9C497.4,804.8,497.5,804.8,550.9,757.7Z" transform="translate(-142.9 -197.3)"/>
      <path class="d" d="M343.7,427.3c.3-3.5,45.4-25,66.2-31.1a321.9,321.9,0,0,1,85.5-12.9,297.1,297.1,0,0,1,52.4,5c32.6,6.1,99.6,35.3,100,39C495.4,383.3,495.4,383.3,343.7,427.3Z" transform="translate(-142.9 -197.3)"/>
    </g>
    <path class="c" d="M432.7,370c-26.5,0-48.1-22.3-48.1-49.7s21.6-49.7,48.1-49.7,48,22.4,48,49.7S459.1,370,432.7,370Zm0-94c-23.6,0-42.7,19.8-42.7,44.3s19.1,44.3,42.7,44.3,42.6-19.8,42.6-44.3S456.2,276,432.7,276Z" transform="translate(-142.9 -197.3)"/>
    <path class="c" d="M563.5,370c-26.5,0-48-22.3-48-49.7s21.5-49.7,48-49.7,48.1,22.4,48.1,49.7S590,370,563.5,370Zm0-94c-23.6,0-42.6,19.8-42.6,44.3s19,44.3,42.6,44.3,42.7-19.8,42.7-44.3S587.1,276,563.5,276Z" transform="translate(-142.9 -197.3)"/>
    <path class="c" d="M497.5,352.3c-26.5,0-48.1-22.3-48.1-49.6S471,253,497.5,253s48,22.3,48,49.7S523.9,352.3,497.5,352.3Zm0-93.9c-23.6,0-42.7,19.8-42.7,44.3S473.9,347,497.5,347s42.6-19.8,42.6-44.3S521,258.4,497.5,258.4Z" transform="translate(-142.9 -197.3)"/>
    <g>
      <g>
        <circle class="b" cx="496.7" cy="658.6" r="106.1" transform="translate(-463.1 346.8) rotate(-45)"/>
        <circle class="e" cx="496.7" cy="658.6" r="99.4" transform="translate(-463.1 346.8) rotate(-45)"/>
        <path class="f" d="M532.5,677.6l-27-21a9.8,9.8,0,0,0-9.5-1.4l-36.4,13.3,2.4-7.6,40.3-15.5L539,677Z" transform="translate(-142.9 -197.3)"/>
        <path class="f" d="M398.3,667a294.3,294.3,0,0,1,41.6-20.1,6.3,6.3,0,0,1,7.6,2.3L459.8,667l2.2-6.1-13.5-17.2c44.3-15.4,99.1-20.5,147,16.5a98.7,98.7,0,0,0-48.9-86.9c-44.4-26.1-102.2-13.2-131.3,29.3A97.8,97.8,0,0,0,398.3,667Z" transform="translate(-142.9 -197.3)"/>
        <path class="e" d="M536.9,589.7s-14.2,1.2-31.1,10.1a13.6,13.6,0,0,1-10.1,1l-29.6-8.2-3.6-.5-22.8,30.4a11.1,11.1,0,0,1-5.4,3.9l-21.8,7.7,3.3,4.8,44.3-16.8,78.2-28.7Z" transform="translate(-142.9 -197.3)"/>
        <g>
          <path class="b" d="M399,676.7l9.5-.9s-1.3-23.6,6.2-37.2c0,0-7.1-20.2-7.1-24.1C398.4,634.1,394.9,654.7,399,676.7Z" transform="translate(-142.9 -197.3)"/>
          <path class="b" d="M550.8,572.5A101.6,101.6,0,1,1,442.6,744.6c-47.4-29.8-61.8-92.7-32-140.1A101.8,101.8,0,0,1,550.8,572.5ZM445.1,740.7a97,97,0,1,0-30.6-133.8A97.1,97.1,0,0,0,445.1,740.7Z" transform="translate(-142.9 -197.3)"/>
          <polygon class="b" points="319.1 463.6 359.3 448.1 358.7 410 321.6 400.4 297.7 432.7 319.1 463.6"/>
          <polygon class="b" points="384.6 512 390.7 473.6 423.3 461.2 436.5 490.9 414.5 521.1 384.6 512"/>
          <polygon class="b" points="302.6 538.3 337.8 549.6 346.8 526.8 313.1 500.6 285.3 509.1 302.6 538.3"/>
          <path class="b" d="M503.9,605.5l.7,41.4-43.4,16.8L437.7,630l25.9-34.9Zm-4,38.3-.6-34.7-33.9-8.8-22,29.8,19.5,28Z" transform="translate(-142.9 -197.3)"/>
          <path class="b" d="M567.4,655.5l14.6,33-23.7,32.6-33.4-10.2,6.6-41.7Zm9.3,32.4L565,661.4l-29.3,11.2-5.6,35.1,26.4,8Z" transform="translate(-142.9 -197.3)"/>
          <path class="b" d="M456.5,695.3l35.9,28-10.3,26.5L444,737.5l-19.3-32.4Zm30.4,29.6-31.3-24.5-23.9,7.4,15.4,25.9,32.3,10.4Z" transform="translate(-142.9 -197.3)"/>
          <path class="b" d="M583.6,610.4l-16.2,8.5s-14-16-30.4-25.3c0,0-1.4-14.7-5.5-21.3l18.1,2.2C563,582.1,574,594.8,583.6,610.4Z" transform="translate(-142.9 -197.3)"/>
          <path class="b" d="M493.6,559.3l.7,4.6s-20.7,4.3-32.6,13.8c0,0-16.8-.9-31.4,6.9Q461.1,556.3,493.6,559.3Z" transform="translate(-142.9 -197.3)"/>
          <path class="b" d="M409.9,614.5c0,2.4,4.1,15.1,7,23.3l.3,1-.5.9c-7,12.9-5.9,35.7-5.9,35.9v2.2L399.3,679l-.5-4.6,7.3-.7c-.1-6.1.2-23.6,6.1-35.3-1.7-4.9-6.9-20.1-6.9-23.8Z" transform="translate(-142.9 -197.3)"/>
          <path class="b" d="M549.8,572.2l-.5,4.5-13.9-1.6c2.3,6.1,3.4,14.1,3.8,17.1,13.5,7.9,25,19.8,28.7,23.9l14.6-7.8,2.2,4.1-17.9,9.4-1.2-1.3c-.1-.2-13.9-15.9-29.7-24.8l-1.1-.6v-1.2c0-.2-1.4-14.3-5.2-20.3l-2.6-4.1Z" transform="translate(-142.9 -197.3)"/>
          <path class="b" d="M495.9,558.9l1.1,6.8-2.2.4c-.2.1-20.4,4.4-31.6,13.4l-.7.6h-.9c-.1,0-16.4-.8-30.2,6.7l-2.2-4.1c13.3-7.1,28-7.3,31.8-7.2,10-7.7,25.2-11.9,30.7-13.3l-.3-2.5Z" transform="translate(-142.9 -197.3)"/>
          <rect class="b" x="515.6" y="637.9" width="4.6" height="40.43" transform="translate(-462.3 446.1) rotate(-50.8)"/>
          <path class="b" d="M569.7,618.6c3,18.4-1,39.4-1.2,40.3L564,658c0-.2,4-21.1,1.1-38.7Z" transform="translate(-142.9 -197.3)"/>
          <path class="b" d="M536.4,591.4l1.3,4.5c-.3,0-24.3,7.2-34.9,13.4l-2.4-4C511.6,598.8,535.4,591.7,536.4,591.4Z" transform="translate(-142.9 -197.3)"/>
          <rect class="b" x="460.8" y="577.6" width="4.6" height="20.2" transform="translate(-219 -128.4) rotate(-7.9)"/>
          <path class="b" d="M532.3,570.2l-1.7,4.3c-.2-.1-21.5-8.4-36.2-8.3v-4.6C510,561.5,531.4,569.8,532.3,570.2Z" transform="translate(-142.9 -197.3)"/>
          <rect class="b" x="414" y="632" width="27.3" height="4.61" transform="translate(-320 -31.5) rotate(-18.2)"/>
          <path class="b" d="M464.2,661.6c-3.8,13.2-5.8,36.2-5.9,36.5l-4.5-.4c0-1,2-23.7,6-37.4Z" transform="translate(-142.9 -197.3)"/>
          <path class="b" d="M410.7,675c4.7,14.5,19,29.7,19.2,29.9l-3.4,3.1c-.6-.6-15.1-16.1-20.2-31.5Z" transform="translate(-142.9 -197.3)"/>
          <path class="b" d="M444.9,733.4l1.3,4.4a34.5,34.5,0,0,1-11.2,1.1l.4-4.6A32,32,0,0,0,444.9,733.4Z" transform="translate(-142.9 -197.3)"/>
          <path class="b" d="M526.4,707.3l2.3,4c-14.4,8.3-37.4,14.7-38.4,15l-1.2-4.4C489.3,721.8,512.5,715.4,526.4,707.3Z" transform="translate(-142.9 -197.3)"/>
          <path class="b" d="M559.7,718.8a69.4,69.4,0,0,1-12.4,27.7l-3.7-2.7A67.3,67.3,0,0,0,555.2,718Z" transform="translate(-142.9 -197.3)"/>
          <path class="b" d="M511.5,754.5l-.3,4.6c-13.3-1-30.8-9.8-31.5-10.1l2.1-4.1C482,744.9,499.1,753.6,511.5,754.5Z" transform="translate(-142.9 -197.3)"/>
          <path class="b" d="M592,679.9l2.7,3.7c-3.5,2.6-13.4,6.3-14.5,6.7l-1.6-4.3C581.4,684.9,589.4,681.7,592,679.9Z" transform="translate(-142.9 -197.3)"/>
        </g>
      </g>
      <path class="b" d="M493.7,560.5s31.5-1.9,40.7,3,5.6,9.7,5.6,9.7l-15.9-2.7-29.8-6.6Z" transform="translate(-142.9 -197.3)"/>
    </g>
    <g>
      <rect class="g" x="517.8" y="275.5" width="36.5" height="61.69"/>
      <rect class="g" x="111.4" y="278.1" width="36.5" height="61.69"/>
      <g>
        <g>
          <path class="b" d="M223,468.9c-.1,10.6-.2,21.1-.2,31.7a18.7,18.7,0,0,1-4.3,11.1,14.8,14.8,0,0,1,4.1,10.2c-.1,10.6-.2,21.1-.2,31.7a29.8,29.8,0,0,1-6.2,17.8c-4,5.6-8.7,9.1-14.2,10.5q-23.9,5.9-47.6,12.8V445.5h48.4c5.5,0,10.3,2.4,14.3,7A23.5,23.5,0,0,1,223,468.9Zm-45.9,33.4,22.9-2.4c.1-9,.1-18.1.2-27.1l-23,1.2C177.2,483.4,177.1,492.8,177.1,502.3Zm-.2,57.6,22.8-4.8c.1-9,.1-18,.2-27.1-7.7,1.2-15.3,2.3-22.9,3.6C177,541,177,550.4,176.9,559.9Z" transform="translate(-142.9 -197.3)"/>
          <g>
            <path class="b" d="M211.5,468.9c0,7.3-.1,14.5-.2,21.8s1,10.2-2.8,15.2-1.2,10.3,1.8,14c1.6,1.8.8,4.6.8,8-.1,5.3-.1,10.5-.2,15.8,0,8.5.7,16-5.4,22.8s-15,6.4-22.8,8.4c-10.5,2.8-20.9,5.7-31.3,8.7l14.5,11.1V445.5L154.4,457h38.2c3.8,0,10-.8,12.8.5,4.5,2.2,6,7.1,6.1,11.4.3,14.8,23.3,14.8,23,0-.4-19.6-14.4-34.9-34.3-34.9H154.4a11.6,11.6,0,0,0-11.5,11.5V594.7a11.7,11.7,0,0,0,14.6,11.1c12.6-3.7,25.3-7.2,38-10.4,5.9-1.6,12.1-2.7,17.5-5.7s10.1-7.9,13.7-13.2c7.5-10.9,7.2-23.1,7.3-35.8,0-6.4.4-13,.1-19.5s-3.1-12.4-7.5-17.6l1.8,13.9c5.2-7,5.8-14.4,5.9-22.9s.1-17.1.2-25.7C234.6,454.1,211.6,454.1,211.5,468.9Z" transform="translate(-142.9 -197.3)"/>
            <path class="b" d="M177.1,513.8l22.9-2.4c6.2-.6,11.5-4.8,11.5-11.5.1-9,.1-18.1.2-27.1,0-6-5.3-11.8-11.5-11.5l-23,1.2c-6.2.3-11.5,5-11.5,11.5,0,9.4-.1,18.8-.1,28.3,0,14.8,23,14.8,23,0,0-9.5.1-18.9.1-28.3l-11.5,11.5,23-1.2-11.5-11.5c-.1,9-.1,18.1-.2,27.1L200,488.4l-22.9,2.4c-6.2.6-11.5,4.8-11.5,11.5S170.9,514.4,177.1,513.8Z" transform="translate(-142.9 -197.3)"/>
            <path class="b" d="M180,571c7.6-1.7,15.2-3.2,22.8-4.8,4.9-.9,8.4-6.3,8.4-11.1.1-9,.1-18,.2-27.1s-7.4-12.2-14.6-11.1L174,520.5c-4.9.8-8.5,6.4-8.5,11.1,0,9.4,0,18.8-.1,28.3,0,14.8,23,14.8,23,0,.1-9.5.1-18.9.1-28.3l-8.4,11.1c7.6-1.3,15.2-2.4,22.8-3.6L188.4,528c-.1,9.1-.1,18.1-.2,27.1l8.5-11-22.8,4.7c-6.1,1.3-9.6,8.4-8,14.1S173.9,572.3,180,571Z" transform="translate(-142.9 -197.3)"/>
          </g>
        </g>
        <g>
          <path class="b" d="M226.4,576.1q.4-65.4,1-130.6h68.8l-.3,23.3-45.8,1.7-.3,25.3,23.5-1.9-.3,24.2c-7.8.8-15.6,1.8-23.4,2.7l-.3,25.3c15.3-2.5,30.5-4.8,45.8-6.9-.1,7.8-.2,15.6-.2,23.3Q260.4,568.3,226.4,576.1Z" transform="translate(-142.9 -197.3)"/>
          <path class="b" d="M237.9,576.1q.4-65.4,1-130.6L227.4,457h68.8l-11.5-11.5-.3,23.3,11.5-11.5L250.1,459c-6.3.3-11.5,5.1-11.5,11.5l-.3,25.3c0,5.8,5.3,12,11.5,11.5l23.5-1.9-11.5-11.5-.3,24.2L273,506.6c-7.8.8-15.6,1.8-23.4,2.7-6.2.8-11.5,4.7-11.5,11.5l-.3,25.3c0,8.1,7.4,12.3,14.6,11.1,15.2-2.5,30.5-4.8,45.8-6.9l-14.6-11.1c-.1,7.8-.2,15.6-.2,23.3l8.4-11.1c-22.9,3.9-45.8,8.5-68.5,13.6-6,1.4-9.6,8.3-8,14.1s8.1,9.4,14.1,8.1c22.7-5.2,45.6-9.7,68.5-13.6,5-.8,8.4-6.4,8.5-11.1,0-7.7.1-15.5.2-23.3s-7.4-12.1-14.5-11.1c-15.3,2.1-30.6,4.4-45.8,6.9l14.5,11.1.3-25.3-11.5,11.5c7.8-.9,15.6-1.9,23.4-2.7s11.5-4.7,11.5-11.5l.3-24.2c.1-5.9-5.3-11.9-11.5-11.5l-23.5,1.9,11.5,11.5.3-25.3L250.1,482l45.8-1.7a11.6,11.6,0,0,0,11.5-11.5l.3-23.3A11.6,11.6,0,0,0,296.2,434H227.4a11.7,11.7,0,0,0-11.5,11.5q-.5,65.3-1,130.6C214.8,590.9,237.8,590.9,237.9,576.1Z" transform="translate(-142.9 -197.3)"/>
        </g>
        <g>
          <path class="b" d="M300.5,445.5h22.8c-.3,30-.7,60.1-1,90.1,10.8-1.3,21.7-2.4,32.6-3.4l-.3,21.7q-27.7,3.5-55.5,7.9C299.6,523,300,484.3,300.5,445.5Z" transform="translate(-142.9 -197.3)"/>
          <path class="b" d="M300.5,457h22.8l-11.5-11.5c-.3,30-.7,60.1-1,90.1-.1,5.7,5.3,12.2,11.5,11.5,10.8-1.3,21.7-2.4,32.6-3.4l-11.5-11.5-.3,21.7,11.5-11.5c-19.6,2.4-39.1,5.1-58.6,8.3l14.6,11.1c.5-38.8.9-77.5,1.4-116.3.1-14.8-22.9-14.8-23,0-.5,38.8-.9,77.5-1.4,116.3-.1,8.1,7.4,12.3,14.6,11.1,17.4-2.8,34.9-5.4,52.4-7.5,6.3-.7,11.4-4.6,11.5-11.5l.3-21.7c0-5.8-5.4-12.1-11.5-11.5-10.9,1-21.8,2.1-32.6,3.4l11.5,11.5c.3-30,.7-60.1,1-90.1A11.6,11.6,0,0,0,323.3,434H300.5C285.7,434,285.6,457,300.5,457Z" transform="translate(-142.9 -197.3)"/>
        </g>
        <g>
          <path class="b" d="M382.7,468.8l-.6,61.1,23.2-1.6c0-6.9.1-13.8.2-20.8l-12.4.6c.1-6.9.2-13.8.2-20.8,11.8-.4,23.5-.8,35.3-1l-.2,20.3c0,7.5-.1,15.1-.1,22.6-.1,5-2.1,9.3-6.2,13.2a23.8,23.8,0,0,1-14.5,6.4q-14.1,1.1-28.2,2.4a18.6,18.6,0,0,1-14.4-4.1,15.7,15.7,0,0,1-5.9-12.9c.3-23.2.5-46.3.8-69.5a18.1,18.1,0,0,1,6.2-13.6,20.2,20.2,0,0,1,14.4-5.6h48.4l-.3,31.9-23.1.5c.1-3.9.1-7.9.1-11.8l-22.9.4Z" transform="translate(-142.9 -197.3)"/>
          <path class="b" d="M371.2,468.8l-.6,61.1c-.1,5.9,5.3,12,11.5,11.5l23.2-1.6c6.2-.4,11.4-4.9,11.5-11.5s.1-13.8.2-20.8-5.4-11.8-11.5-11.5l-12.4.6,11.5,11.5c.1-6.9.2-13.8.2-20.8l-11.5,11.5c11.8-.4,23.5-.8,35.3-1l-11.5-11.5c-.1,8.6-.1,17.3-.2,25.9,0,4.1-.1,8.2-.1,12.3s.4,5.5-1.1,7.8c-3.5,5.2-9.1,5-14.7,5.5l-12.2,1c-4,.4-8.7,1.5-12.6,1.1-6-.7-5.6-4.8-5.6-9.7.1-9.2.2-18.5.4-27.8l.3-27.8c0-5.7-1.5-12.2,3.5-15.8,2.7-2.1,5-1.8,8.6-1.8h45.5l-11.5-11.5-.3,31.9,11.5-11.5-23.1.5L417,477.9c.1-3.9.1-7.9.1-11.8a11.6,11.6,0,0,0-11.5-11.5l-22.9.4a11.8,11.8,0,0,0-11.5,11.5v2.3c-.1,14.8,22.9,14.8,23,0v-2.3L382.7,478l22.9-.4-11.5-11.5c0,3.9,0,7.9-.1,11.8,0,6.1,5.4,11.7,11.5,11.5l23.1-.5a11.6,11.6,0,0,0,11.5-11.5l.3-31.9A11.6,11.6,0,0,0,428.9,434H395c-10.6,0-21.8-1.2-31.2,4.5a31.7,31.7,0,0,0-15.4,26.2c-.6,11.5-.3,23.2-.4,34.8s-.7,23.2-.4,34.7,5.7,20.4,15.4,25.3,21.5,2.7,32.4,1.8,21.3-.8,30.2-7.1a33.2,33.2,0,0,0,11.6-13.6c2.5-5.5,2.6-11.1,2.6-17l.3-37.3c0-6.1-5.3-11.7-11.5-11.5-11.8.2-23.5.6-35.3,1a11.8,11.8,0,0,0-11.5,11.5c0,7-.1,13.9-.2,20.8s5.4,11.9,11.5,11.5l12.4-.6L394,507.5c-.1,7-.2,13.9-.2,20.8l11.5-11.5-23.2,1.6,11.5,11.5.6-61.1C394.4,454,371.4,453.9,371.2,468.8Z" transform="translate(-142.9 -197.3)"/>
        </g>
        <g>
          <path class="b" d="M432.3,547.1l.6-101.6h22.9c-.1,33.5-.3,67-.4,100.5Z" transform="translate(-142.9 -197.3)"/>
          <path class="b" d="M443.8,547.1l.6-101.6L432.9,457h22.9l-11.5-11.5c-.1,33.5-.3,67-.4,100.5l11.5-11.5-23.1,1.1c-6.2.4-11.5,5.1-11.5,11.5s5.2,11.9,11.5,11.5l23.1-1.1A11.7,11.7,0,0,0,466.9,546c.1-33.5.3-67,.4-100.5A11.6,11.6,0,0,0,455.8,434H432.9a11.7,11.7,0,0,0-11.5,11.5l-.6,101.6C420.7,561.9,443.7,562,443.8,547.1Z" transform="translate(-142.9 -197.3)"/>
        </g>
        <g>
          <path class="b" d="M528.9,463.3c.1,27.4.1,54.8.2,82.2q-11.6-.3-23.1-.3V505H482.8c0,13.4,0,26.8-.1,40.2q-11.6.2-23.1.6l.3-57.9V463.3c0-4.8,2-9,6.1-12.6a21.1,21.1,0,0,1,14.4-5.2h27.9a21.1,21.1,0,0,1,14.4,5.2C526.8,454.2,528.9,458.4,528.9,463.3Zm-46,2.1V485H506V465.3Z" transform="translate(-142.9 -197.3)"/>
          <g>
            <path class="b" d="M517.4,463.3c.1,27.4.1,54.8.2,82.2L529.1,534q-11.6-.3-23.1-.3l11.5,11.5V505A11.7,11.7,0,0,0,506,493.5H482.8a11.6,11.6,0,0,0-11.5,11.5c0,13.4,0,26.8-.1,40.2l11.5-11.5q-11.6.2-23.1.6l11.5,11.5c.2-27.2-.1-54.4.4-81.6,0-.5.3-2.6.1-2.1s.4-1,.5-1.1a10.5,10.5,0,0,1,3.7-3.2c4.8-2.4,12.4-.9,17.6-.9s12.9-1.3,18.3.4a9.7,9.7,0,0,1,4.1,2.5c1.5,1.6,1.5,2,1.6,3.4.3,6.2,5.1,11.5,11.5,11.5s11.8-5.3,11.5-11.5c-.8-18.5-16.6-29.2-34-29.3s-37.5-3.5-50.1,10.3c-6.1,6.6-7.8,14-7.8,22.8s-.1,15.9-.1,23.9l-.3,54.9c0,6.1,5.3,11.7,11.5,11.5s15.4-.5,23.1-.6a11.6,11.6,0,0,0,11.5-11.5c.1-13.4.1-26.8.1-40.2l-11.5,11.5H506L494.5,505v40.2A11.8,11.8,0,0,0,506,556.7q11.6,0,23.1.3a11.7,11.7,0,0,0,11.5-11.5c-.1-27.4-.1-54.8-.2-82.2C540.3,448.5,517.3,448.4,517.4,463.3Z" transform="translate(-142.9 -197.3)"/>
            <path class="b" d="M471.4,465.4V485a11.6,11.6,0,0,0,11.5,11.5H506a11.6,11.6,0,0,0,11.5-11.5V465.3A11.8,11.8,0,0,0,506,453.8H482.9c-14.8,0-14.8,23,0,23H506l-11.5-11.5v19.6L506,473.4H482.9L494.4,485V465.4C494.4,450.6,471.4,450.6,471.4,465.4Z" transform="translate(-142.9 -197.3)"/>
          </g>
        </g>
        <g>
          <path class="b" d="M533.4,545.6l-.3-100.1H556c7.7,16.2,15.5,32.5,23.3,49.1l-.3-49.1h22.9l.9,103.7c-7.7-.6-15.4-1.2-23.1-1.6h-.1c-7.8-16.9-15.6-33.4-23.4-49.7l.3,48.4C548.8,546,541.1,545.7,533.4,545.6Z" transform="translate(-142.9 -197.3)"/>
          <path class="b" d="M544.9,545.6l-.3-100.1L533.1,457H556l-10-5.7q11.8,24.4,23.4,49.1c5,10.7,21.5,5.1,21.4-5.8l-.3-49.1L579,457h22.9l-11.5-11.5.9,103.7,11.5-11.5c-7.8-.6-15.5-1.2-23.2-1.6l9.9,5.7q-11.6-24.9-23.3-49.7c-5.1-10.6-21.5-5-21.5,5.8l.3,48.4,11.5-11.5-23.1-.7c-14.8-.4-14.8,22.6,0,23l23.1.7c6.2.3,11.5-5.4,11.5-11.5l-.3-48.4-21.4,5.8q11.7,24.8,23.3,49.7c1.8,3.7,6.2,5.4,10,5.7,7.7.4,15.4,1,23.2,1.6,6.1.5,11.5-5.6,11.5-11.5l-.9-103.7A11.7,11.7,0,0,0,601.9,434H579a11.6,11.6,0,0,0-11.5,11.5l.3,49.1,21.5-5.8-23.4-49.1c-1.7-3.6-6.2-5.7-9.9-5.7H533.1a11.6,11.6,0,0,0-11.5,11.5l.3,100.1C521.9,560.4,544.9,560.4,544.9,545.6Z" transform="translate(-142.9 -197.3)"/>
        </g>
        <g>
          <path class="b" d="M658.6,467.3c.3,22,.5,44,.8,66,7.7.7,15.4,1.6,23.1,2.5l-.3-22.7,22.9,2.2.3,25.8a16.7,16.7,0,0,1-5.9,13.7,17.2,17.2,0,0,1-14.3,3.9c-9.3-1.4-18.7-2.7-28-3.9a24,24,0,0,1-14.5-7.4c-4.1-4.2-6.2-8.8-6.2-14-.3-23-.5-45.9-.8-68.9a17.7,17.7,0,0,1,5.9-13.4,20.4,20.4,0,0,1,14.3-5.6h28a20,20,0,0,1,14.4,6,20.3,20.3,0,0,1,6.2,14.7l.3,25.9-11.4-.8-11.5-.7c0-7.5-.1-15.1-.2-22.6Z" transform="translate(-142.9 -197.3)"/>
          <path class="b" d="M647.1,467.3c.3,22,.5,44,.8,66,.1,6.7,5.2,10.8,11.5,11.5l23.1,2.5c6.1.7,11.5-5.9,11.5-11.5l-.3-22.7-11.5,11.5,22.9,2.2-11.5-11.5c.1,4.6.1,9.3.2,13.9s.6,9.9.1,13.3a4.8,4.8,0,0,1-2.7,4.2c-2.1,1.3-4.9.6-7.6.2-8.6-1.3-17.9-1.5-26.3-3.7a12,12,0,0,1-9.4-11.8c-.3-19-.4-38-.6-57.1-.1-6.5-1.9-13.5,4.8-16.6,1.9-.9,4.9-.7,7.8-.7h15c6.9,0,15-1.6,17.8,6.4.9,2.5.4,7.4.4,10.7.1,6,.2,12,.2,18l11.5-11.5-22.9-1.5,11.5,11.5c0-7.5-.1-15.1-.2-22.6a11.6,11.6,0,0,0-11.5-11.5l-23.1-.7c-14.8-.3-14.8,22.7,0,23l23.1.7L670.2,468c.1,7.5.2,15.1.2,22.6a11.8,11.8,0,0,0,11.5,11.5l22.9,1.5c6.2.4,11.6-5.6,11.5-11.5s-.1-12.6-.2-18.9-.1-13.6-3-20a32.2,32.2,0,0,0-26.3-19c-5.6-.6-11.3-.2-16.9-.2s-13.4-.5-20,.6c-11.5,1.9-21.8,11-24.8,22.4-1.5,5.6-.8,11.6-.8,17.3s.2,13.2.2,19.7c.2,12.8.1,25.6.4,38.4a34.6,34.6,0,0,0,18,29.6c10,5.5,22.6,5.3,33.6,6.9,7.1,1,14,2.4,20.9.1A29,29,0,0,0,713,556.4c3.5-6.1,3.9-12.4,3.9-19.2l-.3-21.9c-.1-6.7-5.2-10.9-11.5-11.5l-22.9-2.2c-6.1-.5-11.6,5.7-11.5,11.5l.3,22.7,11.5-11.5-23.1-2.5,11.5,11.5c-.3-22-.5-44-.8-66C670,452.5,647,452.5,647.1,467.3Z" transform="translate(-142.9 -197.3)"/>
        </g>
        <g>
          <path class="b" d="M731.4,445.5c.4,32.2.7,64.5,1.1,96.8l22.9,3.6c-.3-33.5-.6-66.9-1-100.4h22.9l.3,42.4q.1,10.8.3,32.4t.3,32.4c0,6.4-1.9,11.6-5.9,15.2s-8.7,4.9-14.2,3.8c-9.3-2-18.5-3.8-27.8-5.5a24,24,0,0,1-14.4-8.8,24.6,24.6,0,0,1-6.3-15.9q-.5-48-1.1-96Z" transform="translate(-142.9 -197.3)"/>
          <path class="b" d="M719.9,445.5c.4,32.2.7,64.5,1.1,96.8,0,4.6,3.5,10.3,8.4,11.1,7.7,1.1,15.3,2.4,22.9,3.6s14.7-3,14.6-11.1c-.3-33.5-.6-66.9-1-100.4L754.4,457h22.9l-11.5-11.5q.5,52.2.8,104.6c.1,2.3.1,5.7-.3,6.7s-2.2,3.6-4.2,3.8c-3.8.3-8.4-1.5-12.1-2.3l-14.8-2.9c-6.1-1.1-11.6-4-13.6-10.8-1.2-4-.5-8.7-.6-12.9s-.1-10.4-.2-15.6q-.3-35.4-.8-70.6L708.5,457h22.9c14.8,0,14.8-23,0-23H708.5A11.7,11.7,0,0,0,697,445.5l.9,71.5c0,5.6.1,11.1.2,16.7s-.2,12.5,1.8,18.5a39.1,39.1,0,0,0,22,23.4c4.7,1.9,9.7,2.5,14.6,3.4l16.7,3.4c12.3,2.4,23.9-.2,31.2-11.2,5.3-7.8,5.3-16.8,5.2-25.9s-.2-20.5-.2-30.7l-.6-69.1A11.6,11.6,0,0,0,777.3,434H754.4a11.7,11.7,0,0,0-11.5,11.5c.4,33.5.7,66.9,1,100.4l14.6-11.1-23-3.6,8.5,11.1c-.4-32.3-.7-64.6-1.1-96.8C742.7,430.7,719.7,430.6,719.9,445.5Z" transform="translate(-142.9 -197.3)"/>
        </g>
        <g>
          <path class="b" d="M804.7,527.2l.3,55.3L782.4,577l-.6-75.9v-.5c-.1-18.4-.3-36.8-.4-55.1h48.3c5.6,0,10.4,2.5,14.4,7.7a29.9,29.9,0,0,1,6.1,18.8v36c0,7.2-2,13.2-6,17.7s-8.7,6.3-14.2,5.5Zm-.3-54.4c.1,9,.1,17.9.2,26.9l22.9,2.4c-.1-9.4-.1-18.8-.1-28.1Z" transform="translate(-142.9 -197.3)"/>
          <g>
            <path class="b" d="M793.2,527.2l.3,55.3,14.6-11.1-22.6-5.5,8.4,11.1q-.4-65.7-1-131.5L781.4,457h44.5c5.1,0,6.5-.6,9.6,3.9s3.2,9.7,3.2,15.1v22c0,5.5.8,12.6-1.3,17.3s-3.4,4.9-6.3,4.5l-23.3-3.7c-6.2-.9-12.4,1.6-14.2,8.1s1.9,13.2,8.1,14.1c9.7,1.5,19.9,4.1,29.8,4.5s17.9-4.6,23.5-12.3,6.5-14.6,6.7-22.5c.2-10,0-20,0-30s-.6-18.3-5.2-26.8-10.4-13.5-18.4-16-18.9-1.2-27.7-1.2h-29a11.6,11.6,0,0,0-11.5,11.5q.5,65.7,1,131.5c0,4.9,3.5,10,8.4,11.1l22.7,5.5c7.1,1.8,14.6-3.5,14.5-11.1l-.3-55.3C816.1,512.4,793.1,512.4,793.2,527.2Z" transform="translate(-142.9 -197.3)"/>
            <path class="b" d="M792.9,472.8c.1,9,.1,17.9.2,26.9,0,6.7,5.2,10.9,11.5,11.5l22.9,2.4c6.1.6,11.5-5.8,11.5-11.5-.1-9.4-.1-18.8-.1-28.1,0-6.5-5.3-11.2-11.5-11.5l-23-1.2c-6.2-.3-11.5,5.5-11.5,11.5s5.3,11.2,11.5,11.5l23,1.2L815.9,474c0,9.3,0,18.7.1,28.1l11.5-11.5-22.9-2.4,11.5,11.5c-.1-9-.1-17.9-.2-26.9C815.8,458,792.8,458,792.9,472.8Z" transform="translate(-142.9 -197.3)"/>
          </g>
        </g>
      </g>
      <g>
        <path class="e" d="M222.8,468.8l-.3,31.7a17.5,17.5,0,0,1-4.3,11.2,14.6,14.6,0,0,1,4.2,10.2l-.3,31.6a30.2,30.2,0,0,1-6.1,17.9c-4,5.5-8.8,9-14.3,10.4-15.9,4-31.7,8.2-47.5,12.8V445.4h48.3c5.6,0,10.4,2.4,14.4,7A24.1,24.1,0,0,1,222.8,468.8Zm-45.9,33.4,22.9-2.3c0-9.1.1-18.1.1-27.2L177,473.9C176.9,483.3,176.9,492.8,176.9,502.2Zm-.2,57.6,22.8-4.7c0-9.1.1-18.1.1-27.1l-22.8,3.5C176.8,541,176.7,550.4,176.7,559.8Z" transform="translate(-142.9 -197.3)"/>
        <path class="e" d="M226.2,576q.5-65.2,1-130.6H296l-.3,23.4c-15.3.5-30.6,1-45.9,1.7-.1,8.4-.1,16.8-.2,25.2,7.8-.6,15.6-1.3,23.5-1.8l-.3,24.1-23.5,2.8c0,8.4-.1,16.8-.2,25.2,15.2-2.5,30.5-4.8,45.8-6.9l-.3,23.4C271.7,566.3,248.9,570.9,226.2,576Z" transform="translate(-142.9 -197.3)"/>
        <path class="e" d="M300.2,445.4h22.9c-.4,30.1-.7,60.1-1.1,90.1,10.9-1.2,21.8-2.4,32.6-3.4-.1,7.3-.1,14.5-.2,21.8q-27.9,3.3-55.5,7.9C299.3,523,299.8,484.2,300.2,445.4Z" transform="translate(-142.9 -197.3)"/>
        <path class="e" d="M382.5,468.7l-.6,61.2c7.7-.6,15.4-1.2,23.1-1.6.1-7,.2-13.9.2-20.8l-12.3.6c.1-7,.1-13.9.2-20.9l35.2-1v20.3c-.1,7.6-.1,15.1-.2,22.7,0,4.9-2.1,9.3-6.1,13.1a23.5,23.5,0,0,1-14.6,6.4c-9.4.7-18.7,1.5-28.1,2.5-5.6.5-10.4-.8-14.4-4.2a15.5,15.5,0,0,1-5.9-12.8c.2-23.2.5-46.4.7-69.6a18.6,18.6,0,0,1,6.2-13.5,20.6,20.6,0,0,1,14.5-5.7h48.3l-.2,31.9-23.1.5c0-3.9.1-7.8.1-11.8l-22.9.4Z" transform="translate(-142.9 -197.3)"/>
        <path class="e" d="M432,547.1q.5-50.8.7-101.7h22.9c-.2,33.5-.3,67.1-.5,100.6C447.4,546.3,439.7,546.6,432,547.1Z" transform="translate(-142.9 -197.3)"/>
        <path class="e" d="M528.6,463.2l.3,82.2q-11.5-.3-23.1-.3V504.9H482.6c0,13.4-.1,26.8-.1,40.3l-23.1.5c.1-19.3.2-38.6.2-57.9V463.3a16.6,16.6,0,0,1,6.1-12.6,21.5,21.5,0,0,1,14.4-5.3h28a21.5,21.5,0,0,1,14.4,5.3A16.1,16.1,0,0,1,528.6,463.2Zm-45.9,2.1c-.1,6.6-.1,13.1-.1,19.6h23.1V465.3Z" transform="translate(-142.9 -197.3)"/>
        <path class="e" d="M533.2,545.5c-.1-33.4-.3-66.7-.4-100.1h22.9c7.8,16.2,15.6,32.5,23.4,49.2l-.3-49.2h22.8l.9,103.8c-7.6-.7-15.3-1.2-23-1.7h-.2q-11.7-25.2-23.3-49.6c.1,16.1.2,32.2.2,48.4C548.6,545.9,540.9,545.7,533.2,545.5Z" transform="translate(-142.9 -197.3)"/>
        <path class="e" d="M658.4,467.3c.2,22,.5,43.9.8,65.9l23,2.5c0-7.5-.1-15.1-.2-22.6l22.9,2.1.3,25.9c0,5.6-1.9,10.2-5.9,13.6s-8.8,4.7-14.3,3.9c-9.4-1.4-18.7-2.7-28.1-3.8a24.2,24.2,0,0,1-14.5-7.4,20.2,20.2,0,0,1-6.2-14.1c-.2-22.9-.5-45.9-.7-68.8a17.2,17.2,0,0,1,5.9-13.4,19.9,19.9,0,0,1,14.3-5.7h27.9a19.7,19.7,0,0,1,14.5,6.1,20.4,20.4,0,0,1,6.2,14.6l.3,25.9-11.4-.7-11.5-.7-.3-22.7Z" transform="translate(-142.9 -197.3)"/>
        <path class="e" d="M731.2,445.4c.3,32.3.7,64.6,1,96.8l23,3.7q-.6-50.2-1-100.5h22.9l.3,42.4q.1,10.8.3,32.4c.1,14.4.2,25.2.2,32.4s-1.9,11.6-5.8,15.3-8.7,4.9-14.3,3.7c-9.2-1.9-18.5-3.8-27.8-5.5-5.5-1-10.3-4-14.4-8.8a24.2,24.2,0,0,1-6.2-15.8c-.4-32-.7-64.1-1.1-96.1Z" transform="translate(-142.9 -197.3)"/>
        <path class="e" d="M804.5,527.2l.3,55.2c-7.5-1.9-15.1-3.7-22.6-5.4l-.6-75.9v-.6c-.2-18.4-.3-36.7-.4-55.1h48.3c5.6,0,10.4,2.5,14.4,7.8a30,30,0,0,1,6,18.8v35.9c0,7.2-2,13.2-6,17.8s-8.7,6.3-14.2,5.4Q817.1,529,804.5,527.2Zm-.3-54.5c0,9,.1,18,.1,27l22.9,2.3c0-9.4,0-18.7-.1-28.1Z" transform="translate(-142.9 -197.3)"/>
      </g>
      <g class="h">
        <g>
          <path class="i" d="M222.6,468.8c-.1,10.6-.2,21.1-.2,31.7a18.7,18.7,0,0,1-4.3,11.2,14.4,14.4,0,0,1,4.1,10.2c-.1,10.5-.2,21.1-.2,31.6a29.8,29.8,0,0,1-6.2,17.8c-4,5.6-8.7,9.1-14.2,10.5q-23.8,5.9-47.6,12.8V445.4h48.4c5.5,0,10.3,2.4,14.3,7A23.7,23.7,0,0,1,222.6,468.8Zm-45.9,33.4,22.9-2.4c.1-9,.1-18,.2-27.1l-23,1.2C176.8,483.3,176.7,492.8,176.7,502.2Zm-.2,57.6,22.8-4.7c.1-9.1.1-18.1.2-27.2l-22.9,3.6C176.6,540.9,176.6,550.4,176.5,559.8Z" transform="translate(-142.9 -197.3)"/>
          <path class="i" d="M226,576q.5-65.2,1-130.6h68.8l-.3,23.3c-15.3.6-30.6,1.1-45.8,1.8l-.3,25.2,23.5-1.9-.3,24.2-23.4,2.8-.3,25.2c15.3-2.5,30.5-4.8,45.8-6.9-.1,7.8-.2,15.6-.2,23.4Q260,568.2,226,576Z" transform="translate(-142.9 -197.3)"/>
          <path class="i" d="M300.1,445.4h22.8c-.3,30-.7,60.1-1,90.1,10.8-1.2,21.7-2.4,32.6-3.4l-.3,21.8q-27.7,3.3-55.5,7.9C299.2,523,299.6,484.2,300.1,445.4Z" transform="translate(-142.9 -197.3)"/>
          <path class="i" d="M382.3,468.7l-.6,61.2,23.2-1.7c0-6.9.1-13.8.2-20.7l-12.4.6c.1-7,.2-13.9.2-20.9l35.3-1-.2,20.3c0,7.6-.1,15.1-.1,22.7-.1,4.9-2.1,9.2-6.2,13.1a23.2,23.2,0,0,1-14.5,6.4c-9.4.7-18.8,1.5-28.2,2.5-5.6.5-10.4-.8-14.4-4.2a15.6,15.6,0,0,1-5.9-12.9c.3-23.1.5-46.3.8-69.5a18.1,18.1,0,0,1,6.2-13.6,20.7,20.7,0,0,1,14.4-5.6h48.4l-.3,31.9-23.1.5c.1-3.9.1-7.8.1-11.8l-22.9.4Z" transform="translate(-142.9 -197.3)"/>
          <path class="i" d="M431.9,547.1l.6-101.7h22.9c-.1,33.5-.3,67-.4,100.6C447.3,546.3,439.6,546.6,431.9,547.1Z" transform="translate(-142.9 -197.3)"/>
          <path class="i" d="M528.5,463.2c.1,27.4.1,54.8.2,82.2q-11.6-.3-23.1-.3V504.9H482.4c0,13.4,0,26.8-.1,40.2l-23.1.6.3-57.9V463.3a16,16,0,0,1,6.1-12.6,21.2,21.2,0,0,1,14.4-5.3H508a20.7,20.7,0,0,1,14.4,5.3C526.4,454.2,528.5,458.4,528.5,463.2Zm-46,2.1v19.6h23.1V465.3Z" transform="translate(-142.9 -197.3)"/>
          <path class="i" d="M533,545.5l-.3-100.1h22.9c7.7,16.2,15.5,32.5,23.3,49.2l-.3-49.2h22.9l.9,103.7-23.1-1.6h-.1c-7.8-16.8-15.6-33.3-23.4-49.7l.3,48.5C548.4,545.9,540.7,545.7,533,545.5Z" transform="translate(-142.9 -197.3)"/>
          <path class="i" d="M658.2,467.3c.3,21.9.5,43.9.8,65.9l23.1,2.5-.3-22.6c7.6.6,15.3,1.3,22.9,2.1l.3,25.9a16.7,16.7,0,0,1-5.9,13.6c-4,3.5-8.7,4.7-14.3,3.9-9.3-1.4-18.7-2.7-28-3.8a24,24,0,0,1-14.5-7.4c-4.1-4.3-6.2-8.9-6.2-14.1-.3-22.9-.5-45.9-.8-68.9a17.5,17.5,0,0,1,5.9-13.3,20.1,20.1,0,0,1,14.3-5.7h28a19.7,19.7,0,0,1,14.4,6.1,20.1,20.1,0,0,1,6.2,14.6l.3,25.9-11.4-.8-11.5-.6c0-7.6-.1-15.2-.2-22.7Z" transform="translate(-142.9 -197.3)"/>
          <path class="i" d="M731,445.4c.4,32.3.7,64.6,1.1,96.8l22.9,3.7q-.4-50.2-1-100.5h22.9l.3,42.4q.1,10.8.3,32.4t.3,32.4c0,6.4-1.9,11.6-5.9,15.3a15,15,0,0,1-14.2,3.7c-9.3-1.9-18.5-3.8-27.8-5.5a24,24,0,0,1-14.4-8.8,24.4,24.4,0,0,1-6.3-15.8q-.5-48.2-1.1-96.1Z" transform="translate(-142.9 -197.3)"/>
          <path class="i" d="M804.3,527.2l.3,55.2c-7.5-1.9-15.1-3.7-22.6-5.4l-.6-75.9v-.6c-.1-18.4-.3-36.7-.4-55.1h48.3c5.6,0,10.4,2.5,14.4,7.8s6.1,11.5,6.1,18.8v35.9c0,7.2-2,13.2-6,17.8s-8.7,6.3-14.2,5.4C821.2,529.7,812.7,528.4,804.3,527.2Zm-.3-54.5c.1,9,.1,18,.2,26.9l22.9,2.4c-.1-9.4-.1-18.7-.1-28.1Z" transform="translate(-142.9 -197.3)"/>
        </g>
      </g>
    </g>
    <g>
      <path class="j" d="M364.2,649.6c-31.3,4.1-62.3,9.6-93.1,16.3,2.1-10.9,4.3-21.9,6.6-32.8-6.7-9.7-13.5-19.4-20.4-29q49.1-10.8,98.7-17.4C358.7,607.7,361.5,628.6,364.2,649.6Z" transform="translate(-142.9 -197.3)"/>
      <path class="b" d="M348.8,596.1l6,46.3c-24.4,3.4-48.9,7.7-73.1,12.8,1.3-6.8,2.7-13.6,4.1-20.4l.8-3.5-2-2.9c-4.4-6.3-8.7-12.6-13.2-18.8,25.6-5.4,51.6-9.9,77.4-13.5m7.2-9.4q-49.7,6.6-98.7,17.4c6.9,9.6,13.7,19.3,20.4,29-2.3,10.9-4.5,21.9-6.6,32.8,30.8-6.7,61.8-12.2,93.1-16.3-2.7-21-5.5-41.9-8.2-62.9Z" transform="translate(-142.9 -197.3)"/>
      <path class="j" d="M630.9,649.6c31.2,4.1,62.2,9.6,93,16.3-2.1-10.9-4.2-21.9-6.5-32.8,6.7-9.7,13.5-19.4,20.4-29q-49-10.8-98.8-17.4Z" transform="translate(-142.9 -197.3)"/>
      <path class="b" d="M646.2,596.1c25.9,3.6,51.8,8.1,77.4,13.5-4.4,6.2-8.8,12.5-13.1,18.8l-2,2.9.7,3.5,4.2,20.4c-24.2-5.1-48.8-9.4-73.2-12.8l2.2-17,3.8-29.3m-7.2-9.4-8.1,62.9c31.2,4.1,62.2,9.6,93,16.3-2.1-10.9-4.2-21.9-6.5-32.8,6.7-9.7,13.5-19.4,20.4-29q-49-10.8-98.8-17.4Z" transform="translate(-142.9 -197.3)"/>
      <path class="b" d="M686.3,627.1c-18.7,7-37.1,14.4-55.4,22.5l3.9-30.5C652,621.4,669.2,624,686.3,627.1Z" transform="translate(-142.9 -197.3)"/>
      <path class="d" d="M685.9,627a1083.7,1083.7,0,0,0-377.2.1l-11.1-62.4a1150.4,1150.4,0,0,1,399.5-.1Q691.6,595.8,685.9,627Z" transform="translate(-142.9 -197.3)"/>
      <g>
        <path class="e" d="M422.4,599.4c-.9-11.9-1.8-23.8-2.8-35.7l20.3-1.3c.1,2.3.2,4.7.4,7.1-4.5.2-9,.5-13.4.9.1,2.4.3,4.7.5,7.1l6.8-.4c.2,2.3.3,4.7.5,7.1l-6.8.5c.3,4.7.7,9.5,1,14.2Z" transform="translate(-142.9 -197.3)"/>
        <path class="e" d="M455.4,561.6l1.2,28.5,6.6-.2c-.3-9.6-.7-19.1-1-28.6l6.7-.2.3,11.6c.1,1.9.2,4.9.3,8.8s.2,6.9.3,8.9a6.8,6.8,0,0,1-1.6,4.6,5.1,5.1,0,0,1-4,2l-8,.4a5.6,5.6,0,0,1-4.1-1.7,6.7,6.7,0,0,1-2-4.5l-1.5-29.3Z" transform="translate(-142.9 -197.3)"/>
        <path class="e" d="M498,560.6v7.1h-6.7c.1,9.5.1,19.1.2,28.6H485c-.2-9.6-.3-19.1-.5-28.7l-6.6.2c-.1-2.4-.2-4.8-.2-7.2Z" transform="translate(-142.9 -197.3)"/>
        <path class="e" d="M513.3,572.2l13.2,8.5c-.1,3.2-.2,6.4-.2,9.6a7,7,0,0,1-1.9,4.5,5.4,5.4,0,0,1-4.1,1.8l-13.8-.2c0-1.3.1-3.2.1-5.8v-5.9h6.6V587c0,1-.1,1.8-.1,2.3h6.6c.1-1.6.1-3.2.1-4.7l-4.1-2.6-5-3.2a46.2,46.2,0,0,1-4-2.7V567a6.1,6.1,0,0,1,1.8-4.5,5.6,5.6,0,0,1,4.3-1.9l14.2.3c0,1.3-.1,3.3-.1,5.9s-.2,4.5-.2,5.8H520a20.3,20.3,0,0,1,.1-2.2v-2.3h-6.7Z" transform="translate(-142.9 -197.3)"/>
        <path class="e" d="M555.8,568.4c-.6,9.8-1.1,19.6-1.6,29.4l-6.5-.3c.2-4.8.4-9.6.7-14.4l-6.7-.3-.6,14.4-6.5-.2c.3-6.9.5-13.8.7-20.7h0l.3-8.6a6.3,6.3,0,0,1,2-4.5,5.4,5.4,0,0,1,4.3-1.7l8.2.4a5.1,5.1,0,0,1,4.1,2.1A6.2,6.2,0,0,1,555.8,568.4Zm-13.5.2-.3,7,6.7.3.3-7Z" transform="translate(-142.9 -197.3)"/>
        <path class="e" d="M564.9,562.6l6.8.4c-.7,9.6-1.3,19.1-2,28.6l9.3.7-.6,7.1-15.7-1.1C563.5,586.4,564.2,574.5,564.9,562.6Z" transform="translate(-142.9 -197.3)"/>
      </g>
      <path class="b" d="M497.6,555.5a1150.3,1150.3,0,0,1,189.8,15.9l-7,39.6-1.2,6.4a1091.9,1091.9,0,0,0-363.7.1L310,586.8l-2.8-15.3a1146.5,1146.5,0,0,1,190.3-16h.1m-.1-8.3a1146.9,1146.9,0,0,0-199.9,17.5l11.1,62.4a1082.9,1082.9,0,0,1,377.2-.1q5.7-31.2,11.2-62.4a1154,1154,0,0,0-199.6-17.4Z" transform="translate(-142.9 -197.3)"/>
      <path class="b" d="M308.7,627.1c18.7,7,37.2,14.4,55.5,22.5-1.3-10.2-2.7-20.3-4-30.5C343,621.4,325.9,624,308.7,627.1Z" transform="translate(-142.9 -197.3)"/>
    </g>
  </g>
</svg>
